Coordinates
version=1
nRows=33
nColumns=24
inDegrees=yes

Units are S.I. units (second, meters, Newtons, ...)
If the header above contains a line with 'inDegrees', this indicates whether rotational values are in degrees (yes) or radians (no).

endheader
time	pelvis_tilt	pelvis_list	pelvis_rotation	pelvis_tx	pelvis_ty	pelvis_tz	hip_flexion_r	hip_adduction_r	hip_rotation_r	knee_angle_r	ankle_angle_r	subtalar_angle_r	mtp_angle_r	hip_flexion_l	hip_adduction_l	hip_rotation_l	knee_angle_l	ankle_angle_l	subtalar_angle_l	mtp_angle_l	lumbar_extension	lumbar_bending	lumbar_rotation
2.300000	12.037845	0.644636	-184.157972	0.215510	0.847072	-1.204851	20.189495	-12.290810	-28.706480	-14.495547	0.519388	12.323864	0.000000	19.427043	-15.856483	-30.324292	-17.997898	3.604422	7.515454	0.000000	3.665590	1.825002	1.621558
2.305000	12.036301	0.642532	-184.162035	0.215405	0.847063	-1.204821	20.183409	-12.292695	-28.705525	-14.494397	0.517955	12.322881	0.000000	19.416833	-15.854632	-30.323592	-18.004815	3.606320	7.512196	0.000000	3.678738	1.830563	1.622691
2.310000	12.021103	0.655045	-184.206239	0.215299	0.847079	-1.204801	20.170157	-12.268863	-28.672505	-14.492291	0.514243	12.321187	0.000000	19.382921	-15.872079	-30.326804	-18.012442	3.621900	7.416722	0.000000	3.672220	1.856612	1.691115
2.315000	11.990853	0.702695	-184.233011	0.215196	0.847152	-1.204868	20.127139	-12.206922	-28.684315	-14.478706	0.503912	12.299317	0.000000	19.339487	-15.928472	-30.315248	-18.016893	3.614453	7.371499	0.000000	3.645099	1.903979	1.729260
2.320000	11.987450	0.699837	-184.228215	0.215141	0.847147	-1.204904	20.109332	-12.203379	-28.671488	-14.457151	0.498185	12.298897	0.000000	19.342240	-15.928760	-30.301606	-18.033933	3.633371	7.367592	0.000000	3.645439	1.892955	1.706680
2.325000	11.997915	0.681850	-184.201481	0.215088	0.847083	-1.204887	20.100603	-12.224265	-28.680553	-14.431442	0.506675	12.279679	0.000000	19.366464	-15.888712	-30.296143	-18.014850	3.651551	7.331818	0.000000	3.662667	1.873559	1.655795
2.330000	11.982406	0.690705	-184.202019	0.215050	0.847102	-1.204959	20.084900	-12.211916	-28.670361	-14.440355	0.493991	12.273899	0.000000	19.355799	-15.909415	-30.255563	-18.035047	3.662562	7.338681	0.000000	3.649902	1.876835	1.669693
2.335000	11.986257	0.721404	-184.217382	0.215000	0.847121	-1.204972	20.078878	-12.171624	-28.679432	-14.427110	0.490001	12.248082	0.000000	19.361140	-15.947315	-30.242067	-18.064149	3.650672	7.280984	0.000000	3.656037	1.918099	1.682626
2.340000	11.984403	0.724803	-184.237498	0.214946	0.847136	-1.204918	20.082032	-12.168372	-28.684221	-14.435405	0.495423	12.246379	0.000000	19.358750	-15.954618	-30.234987	-18.082064	3.633965	7.265208	0.000000	3.660722	1.938510	1.728642
2.345000	11.984010	0.743024	-184.253681	0.214970	0.847091	-1.204929	20.087679	-12.148343	-28.699583	-14.446034	0.525024	12.262634	0.000000	19.371112	-15.969737	-30.206730	-18.094485	3.617329	7.132377	0.000000	3.655928	1.976754	1.737837
2.350000	11.980726	0.724059	-184.245812	0.214944	0.847111	-1.204925	20.076851	-12.168389	-28.697674	-14.432706	0.505693	12.265012	0.000000	19.378558	-15.958533	-30.181344	-18.134771	3.625971	7.144497	0.000000	3.653182	1.952963	1.735842
2.355000	11.977014	0.705365	-184.209817	0.214944	0.847104	-1.204937	20.060574	-12.194188	-28.701194	-14.422208	0.480681	12.260271	0.000000	19.391254	-15.931480	-30.159075	-18.145669	3.659961	7.162632	0.000000	3.647892	1.924015	1.679110
2.360000	11.971518	0.709132	-184.194199	0.214983	0.847065	-1.204980	20.056522	-12.192351	-28.697453	-14.428026	0.479673	12.261818	0.000000	19.405897	-15.935871	-30.160812	-18.138205	3.661976	7.161302	0.000000	3.639434	1.918015	1.680268
2.365000	11.966212	0.719864	-184.167993	0.214987	0.847106	-1.204978	20.052898	-12.191121	-28.715542	-14.450307	0.500380	12.244219	0.000000	19.425090	-15.955270	-30.118952	-18.189530	3.703182	7.200857	0.000000	3.627536	1.926881	1.665281
2.370000	11.966816	0.720705	-184.167372	0.214937	0.847147	-1.204940	20.052561	-12.193771	-28.716381	-14.452547	0.500470	12.243546	0.000000	19.426926	-15.954229	-30.119907	-18.194254	3.699005	7.201033	0.000000	3.625086	1.936503	1.669745
2.375000	11.961524	0.728324	-184.160432	0.214975	0.847112	-1.204947	20.053749	-12.193386	-28.719400	-14.469739	0.507580	12.239434	0.000000	19.446764	-15.963805	-30.118510	-18.222710	3.684217	7.188047	0.000000	3.610742	1.946840	1.679984
2.380000	11.961913	0.728427	-184.143232	0.215016	0.847070	-1.204954	20.059732	-12.198873	-28.752458	-14.486271	0.532224	12.219165	0.000000	19.476462	-15.969409	-30.095054	-18.266378	3.694046	7.176182	0.000000	3.603626	1.949902	1.665335
2.385000	11.956786	0.725906	-184.138283	0.215051	0.847054	-1.204930	20.064451	-12.207135	-28.748126	-14.503461	0.524102	12.219667	0.000000	19.492455	-15.973718	-30.088224	-18.302650	3.687472	7.168537	0.000000	3.592627	1.955988	1.669345
2.390000	11.953123	0.736631	-184.136681	0.215079	0.847053	-1.204912	20.074272	-12.202794	-28.765296	-14.533170	0.538720	12.209422	0.000000	19.505176	-15.989531	-30.072393	-18.328066	3.679651	7.161351	0.000000	3.580910	1.968210	1.700693
2.395000	11.966651	0.762678	-184.127568	0.215124	0.847044	-1.204909	20.097143	-12.180792	-28.786376	-14.559487	0.568862	12.199588	0.000000	19.542942	-16.020788	-30.038152	-18.355827	3.685961	7.125945	0.000000	3.588815	1.999622	1.705060
2.400000	11.960303	0.762931	-184.103506	0.215185	0.847050	-1.204950	20.090012	-12.183820	-28.785239	-14.563281	0.565500	12.198911	0.000000	19.568615	-16.030377	-30.030128	-18.397703	3.677011	7.123463	0.000000	3.575630	1.983527	1.703722
2.405000	11.966713	0.764952	-184.057892	0.215320	0.846992	-1.205022	20.092750	-12.185698	-28.789967	-14.563985	0.565214	12.184924	0.000000	19.637120	-16.046173	-29.991510	-18.475984	3.723051	7.143166	0.000000	3.571757	1.976846	1.620049
2.410000	11.968149	0.764322	-184.018531	0.215405	0.846964	-1.205042	20.091898	-12.197201	-28.817289	-14.569707	0.551499	12.161795	0.000000	19.687351	-16.052415	-29.958409	-18.536334	3.736630	7.172532	0.000000	3.565499	1.967596	1.606099
2.415000	11.958531	0.768058	-184.015233	0.215476	0.846958	-1.205036	20.100673	-12.201786	-28.820829	-14.601739	0.555995	12.154307	0.000000	19.702725	-16.065943	-29.944512	-18.574535	3.719596	7.176107	0.000000	3.547159	1.982840	1.623106
2.420000	11.969920	0.799599	-184.025730	0.215503	0.846929	-1.205006	20.128215	-12.176940	-28.854262	-14.638173	0.588725	12.147060	0.000000	19.736369	-16.111444	-29.930187	-18.620170	3.713404	7.160429	0.000000	3.555074	2.030381	1.676714
2.425000	11.959049	0.807314	-184.024906	0.215571	0.846903	-1.204971	20.136738	-12.181164	-28.856926	-14.674501	0.591485	12.146054	0.000000	19.753560	-16.128303	-29.907139	-18.670033	3.704849	7.157155	0.000000	3.531854	2.045830	1.691719
2.430000	11.987930	0.790403	-183.976978	0.215682	0.846786	-1.204919	20.177990	-12.220437	-28.892855	-14.708722	0.633204	12.143707	0.000000	19.838345	-16.107825	-29.847041	-18.730916	3.746382	7.146750	0.000000	3.559827	2.030594	1.642928
2.435000	11.991399	0.780638	-183.921088	0.215856	0.846727	-1.204998	20.182153	-12.239065	-28.872245	-14.713653	0.638945	12.152039	0.000000	19.900317	-16.100238	-29.785991	-18.780263	3.761119	7.153132	0.000000	3.549929	1.996163	1.574535
2.440000	11.981652	0.772605	-183.868720	0.215972	0.846714	-1.205034	20.179180	-12.263654	-28.872617	-14.743053	0.650436	12.129603	0.000000	19.937981	-16.089042	-29.737756	-18.821550	3.765886	7.161707	0.000000	3.527939	1.966613	1.535100
2.445000	11.968426	0.775401	-183.846507	0.216090	0.846727	-1.205042	20.187723	-12.274853	-28.868087	-14.784334	0.656640	12.118270	0.000000	19.960438	-16.096530	-29.715856	-18.858477	3.758368	7.163611	0.000000	3.503525	1.966118	1.547724
2.450000	11.958751	0.785072	-183.839762	0.216211	0.846734	-1.205016	20.212555	-12.281470	-28.872531	-14.845973	0.675019	12.096598	0.000000	19.979572	-16.109532	-29.691188	-18.895506	3.750808	7.156836	0.000000	3.475880	1.985606	1.564126
2.455000	11.947367	0.791106	-183.831281	0.216349	0.846709	-1.204995	20.236085	-12.290361	-28.867191	-14.906252	0.689856	12.078278	0.000000	20.006559	-16.121356	-29.663469	-18.950730	3.748612	7.147696	0.000000	3.448407	2.001754	1.575493
2.460000	11.959689	0.785551	-183.796717	0.216537	0.846622	-1.204972	20.286864	-12.318341	-28.865366	-14.982436	0.736733	12.025416	0.000000	20.076551	-16.117117	-29.607631	-19.018195	3.794243	7.108537	0.000000	3.442924	1.999775	1.554628
